<svg width="28" height="28" viewBox="0 0 28 28" fill="none" xmlns="http://www.w3.org/2000/svg">
<rect width="28" height="28" rx="4" fill="white"/>
<path d="M23.3753 14.3752C23.3753 14.5741 23.2963 14.7649 23.1557 14.9055C23.015 15.0462 22.8243 15.1252 22.6253 15.1252H12.8753C12.6764 15.1252 12.4857 15.0462 12.345 14.9055C12.2044 14.7649 12.1253 14.5741 12.1253 14.3752C12.1253 14.1763 12.2044 13.9855 12.345 13.8448C12.4857 13.7042 12.6764 13.6252 12.8753 13.6252H22.6253C22.8243 13.6252 23.015 13.7042 23.1557 13.8448C23.2963 13.9855 23.3753 14.1763 23.3753 14.3752ZM12.8753 9.12517H22.6253C22.8243 9.12517 23.015 9.04616 23.1557 8.9055C23.2963 8.76485 23.3753 8.57409 23.3753 8.37517C23.3753 8.17626 23.2963 7.9855 23.1557 7.84484C23.015 7.70419 22.8243 7.62517 22.6253 7.62517H12.8753C12.6764 7.62517 12.4857 7.70419 12.345 7.84484C12.2044 7.9855 12.1253 8.17626 12.1253 8.37517C12.1253 8.57409 12.2044 8.76485 12.345 8.9055C12.4857 9.04616 12.6764 9.12517 12.8753 9.12517ZM22.6253 19.6252H6.12535C5.92643 19.6252 5.73567 19.7042 5.59502 19.8448C5.45436 19.9855 5.37535 20.1763 5.37535 20.3752C5.37535 20.5741 5.45436 20.7649 5.59502 20.9055C5.73567 21.0462 5.92643 21.1252 6.12535 21.1252H22.6253C22.8243 21.1252 23.015 21.0462 23.1557 20.9055C23.2963 20.7649 23.3753 20.5741 23.3753 20.3752C23.3753 20.1763 23.2963 19.9855 23.1557 19.8448C23.015 19.7042 22.8243 19.6252 22.6253 19.6252ZM9.12535 15.8752C9.27377 15.8753 9.41889 15.8314 9.54233 15.749C9.66578 15.6666 9.762 15.5494 9.81881 15.4123C9.87563 15.2751 9.89048 15.1243 9.86149 14.9787C9.83251 14.8331 9.76098 14.6994 9.65597 14.5945L6.43566 11.3752L9.65597 8.1558C9.7967 8.01507 9.87576 7.8242 9.87576 7.62517C9.87576 7.42615 9.7967 7.23528 9.65597 7.09455C9.51524 6.95382 9.32437 6.87476 9.12535 6.87476C8.92632 6.87476 8.73545 6.95382 8.59472 7.09455L4.84472 10.8445C4.77499 10.9142 4.71967 10.9969 4.68193 11.088C4.64418 11.179 4.62476 11.2766 4.62476 11.3752C4.62476 11.4737 4.64418 11.5713 4.68193 11.6624C4.71967 11.7534 4.77499 11.8361 4.84472 11.9058L8.59472 15.6558C8.66442 15.7254 8.74716 15.7806 8.83821 15.8183C8.92926 15.8559 9.02683 15.8753 9.12535 15.8752Z" fill="#6A6A6A"/>
</svg>
