<svg width="28" height="28" viewBox="0 0 28 28" fill="none" xmlns="http://www.w3.org/2000/svg">
<rect width="28" height="28" rx="4" fill="white"/>
<path d="M23.0003 14.3752C23.0003 14.5741 22.9213 14.7649 22.7807 14.9055C22.64 15.0462 22.4493 15.1252 22.2503 15.1252H12.5003C12.3014 15.1252 12.1107 15.0462 11.97 14.9055C11.8294 14.7649 11.7503 14.5741 11.7503 14.3752C11.7503 14.1763 11.8294 13.9855 11.97 13.8448C12.1107 13.7042 12.3014 13.6252 12.5003 13.6252H22.2503C22.4493 13.6252 22.64 13.7042 22.7807 13.8448C22.9213 13.9855 23.0003 14.1763 23.0003 14.3752ZM12.5003 9.12517H22.2503C22.4493 9.12517 22.64 9.04616 22.7807 8.9055C22.9213 8.76485 23.0003 8.57409 23.0003 8.37517C23.0003 8.17626 22.9213 7.9855 22.7807 7.84484C22.64 7.70419 22.4493 7.62517 22.2503 7.62517H12.5003C12.3014 7.62517 12.1107 7.70419 11.97 7.84484C11.8294 7.9855 11.7503 8.17626 11.7503 8.37517C11.7503 8.57409 11.8294 8.76485 11.97 8.9055C12.1107 9.04616 12.3014 9.12517 12.5003 9.12517ZM22.2503 19.6252H5.75035C5.55143 19.6252 5.36067 19.7042 5.22002 19.8448C5.07936 19.9855 5.00035 20.1763 5.00035 20.3752C5.00035 20.5741 5.07936 20.7649 5.22002 20.9055C5.36067 21.0462 5.55143 21.1252 5.75035 21.1252H22.2503C22.4493 21.1252 22.64 21.0462 22.7807 20.9055C22.9213 20.7649 23.0003 20.5741 23.0003 20.3752C23.0003 20.1763 22.9213 19.9855 22.7807 19.8448C22.64 19.7042 22.4493 19.6252 22.2503 19.6252ZM5.21972 15.6558C5.28938 15.7255 5.37209 15.7809 5.46314 15.8186C5.55419 15.8563 5.65178 15.8758 5.75035 15.8758C5.84891 15.8758 5.9465 15.8563 6.03755 15.8186C6.1286 15.7809 6.21132 15.7255 6.28097 15.6558L10.031 11.9058C10.1007 11.8361 10.156 11.7534 10.1938 11.6624C10.2315 11.5713 10.2509 11.4737 10.2509 11.3752C10.2509 11.2766 10.2315 11.179 10.1938 11.088C10.156 10.9969 10.1007 10.9142 10.031 10.8445L6.28097 7.09455C6.14024 6.95382 5.94937 6.87476 5.75035 6.87476C5.55132 6.87476 5.36045 6.95382 5.21972 7.09455C5.07899 7.23528 4.99993 7.42615 4.99993 7.62517C4.99993 7.8242 5.07899 8.01507 5.21972 8.1558L8.44003 11.3752L5.21972 14.5945C5.14999 14.6642 5.09467 14.7469 5.05693 14.838C5.01918 14.929 4.99976 15.0266 4.99976 15.1252C4.99976 15.2237 5.01918 15.3213 5.05693 15.4124C5.09467 15.5034 5.14999 15.5861 5.21972 15.6558Z" fill="#6A6A6A"/>
</svg>
